# Made in Blockbench 4.12.6
mtllib 1x2.mtl

o 1x2
v 0.0625 0.25 0.0625
v 0.0625 0.25 -0.0625
v 0.0625 0 0.0625
v 0.0625 0 -0.0625
v -0.0625 0.25 0.0625
v -0.0625 0.25 -0.0625
v -0.0625 0 0.0625
v -0.0625 0 -0.0625
v -0.125 0.25 0.0625
v -0.125 0.25 -0.0625
v -0.125 0 0.0625
v -0.125 0 -0.0625
v 0.0625 0.25 -0.125
v 0.0625 0 -0.125
v -0.0625 0.25 -0.125
v -0.0625 0 -0.125
v -0.125 0 -0.125
v -0.125 0.25 -0.125
v 0.125 0 -0.125
v 0.125 0.25 -0.125
v 0.125 0.25 -0.0625
v 0.125 0 -0.0625
v 0.125 0.25 0.0625
v 0.125 0 0.0625
v -0.125 0.25 0.1875
v -0.125 0 0.1875
v -0.0625 0 0.1875
v -0.0625 0.25 0.1875
v 0.125 0 0.1875
v 0.125 0.25 0.1875
v 0.0625 0.25 0.1875
v 0.0625 0 0.1875
v -0.125 0.25 0.3125
v -0.125 0 0.3125
v -0.0625 0 0.3125
v -0.0625 0.25 0.3125
v 0.125 0 0.3125
v 0.125 0.25 0.3125
v 0.0625 0.25 0.3125
v 0.0625 0 0.3125
v -0.125 0.25 0.375
v -0.125 0 0.375
v -0.0625 0 0.375
v -0.0625 0.25 0.375
v 0.125 0 0.375
v 0.125 0.25 0.375
v 0.0625 0.25 0.375
v 0.0625 0 0.375
v -0.0625 0.3125 0.3125
v 0.0625 0.3125 0.3125
v 0.0625 0.3125 0.1875
v -0.0625 0.3125 0.1875
v 0.0625 0.3125 0.0625
v 0.0625 0.3125 -0.0625
v -0.0625 0.3125 0.0625
v -0.0625 0.3125 -0.0625
v 0.0625 0.0625 0.0625
v -0.0625 0.0625 0.0625
v 0.0625 0.0625 -0.0625
v -0.0625 0.0625 -0.0625
v 0.0625 0.0625 0.3125
v -0.0625 0.0625 0.3125
v -0.0625 0.0625 0.1875
v 0.0625 0.0625 0.1875
vt 0.125 1
vt 0 1
vt 0 0.75
vt 0.125 0.75
vt 0.125 0.75
vt 0.125 1
vt 0 1
vt 0 0.75
vt 0 0.875
vt 0.125 0.875
vt 0.125 1
vt 0 1
vt 0.125 0.875
vt 0.125 1
vt 0 1
vt 0 0.875
vt 0.125 0.75
vt 0.125 1
vt 0 1
vt 0 0.75
vt 0.125 1
vt 0 1
vt 0 0.75
vt 0.125 0.75
vt 0.0625 1
vt 0.0625 0.75
vt 0.125 0.75
vt 0.125 1
vt 0 1
vt 0 0.875
vt 0.0625 0.875
vt 0.0625 1
vt 0.0625 0.75
vt 0.0625 1
vt 0 1
vt 0 0.75
vt 0 0.9375
vt 0 0.8125
vt 0.0625 0.8125
vt 0.0625 0.9375
vt 0.125 1
vt 0 1
vt 0 0.9375
vt 0.125 0.9375
vt 0.0625 0.75
vt 0.0625 1
vt 0 1
vt 0 0.75
vt 0 0.8125
vt 0.125 0.8125
vt 0.125 0.875
vt 0 0.875
vt 0 1
vt 0 0.75
vt 0.0625 0.75
vt 0.0625 1
vt 0.0625 1
vt 0 1
vt 0 0.9375
vt 0.0625 0.9375
vt 0 0.8125
vt 0.0625 0.8125
vt 0.0625 0.875
vt 0 0.875
vt 0 1
vt 0 0.75
vt 0.0625 0.75
vt 0.0625 1
vt 0.0625 0.9375
vt 0.0625 1
vt 0 1
vt 0 0.9375
vt 0.0625 0.8125
vt 0.0625 0.875
vt 0 0.875
vt 0 0.8125
vt 0.0625 0.875
vt 0.0625 1
vt 0 1
vt 0 0.875
vt 0.0625 0.75
vt 0.0625 1
vt 0 1
vt 0 0.75
vt 0.0625 0.8125
vt 0.0625 0.9375
vt 0 0.9375
vt 0 0.8125
vt 0.0625 0.75
vt 0.0625 1
vt 0 1
vt 0 0.75
vt 0.0625 0.875
vt 0 0.875
vt 0 0.8125
vt 0.0625 0.8125
vt 0 0.9375
vt 0.0625 0.9375
vt 0.0625 1
vt 0 1
vt 0 1
vt 0 0.75
vt 0.0625 0.75
vt 0.0625 1
vt 0 0.9375
vt 0.0625 0.9375
vt 0.0625 1
vt 0 1
vt 0.0625 0.875
vt 0 0.875
vt 0 0.8125
vt 0.0625 0.8125
vt 0 0.9375
vt 0.125 0.9375
vt 0.125 1
vt 0 1
vt 0.125 0.875
vt 0 0.875
vt 0 0.8125
vt 0.125 0.8125
vt 0.0625 0.75
vt 0.0625 1
vt 0 1
vt 0 0.75
vt 0.0625 0.875
vt 0 0.875
vt 0 0.8125
vt 0.0625 0.8125
vt 0 0.9375
vt 0.0625 0.9375
vt 0.0625 1
vt 0 1
vt 0 1
vt 0 0.75
vt 0.0625 0.75
vt 0.0625 1
vt 0 0.9375
vt 0.0625 0.9375
vt 0.0625 1
vt 0 1
vt 0.0625 0.875
vt 0 0.875
vt 0 0.8125
vt 0.0625 0.8125
vt 0 0.9375
vt 0.125 0.9375
vt 0.125 1
vt 0 1
vt 0.125 0.875
vt 0 0.875
vt 0 0.8125
vt 0.125 0.8125
vt 0.0625 0.75
vt 0.0625 1
vt 0 1
vt 0 0.75
vt 0.0625 0.875
vt 0 0.875
vt 0 0.8125
vt 0.0625 0.8125
vt 0 0.9375
vt 0.0625 0.9375
vt 0.0625 1
vt 0 1
vt 0 1
vt 0 0.75
vt 0.0625 0.75
vt 0.0625 1
vt 0 0.9375
vt 0.0625 0.9375
vt 0.0625 1
vt 0 1
vt 0.0625 0.875
vt 0 0.875
vt 0 0.8125
vt 0.0625 0.8125
vt 0 0.9375
vt 0.125 0.9375
vt 0.125 1
vt 0 1
vt 0.125 0.875
vt 0 0.875
vt 0 0.8125
vt 0.125 0.8125
vt 0.125 1
vt 0 1
vt 0 0.9375
vt 0.125 0.9375
vt 0.125 1
vt 0 1
vt 0 0.9375
vt 0.125 0.9375
vt 0.125 1
vt 0 1
vt 0 0.9375
vt 0.125 0.9375
vt 0.125 1
vt 0 1
vt 0 0.9375
vt 0.125 0.9375
vt 0.125 0.9375
vt 0 0.9375
vt 0 0.875
vt 0.125 0.875
vt 0.125 1
vt 0 1
vt 0 0.9375
vt 0.125 0.9375
vt 0.125 1
vt 0 1
vt 0 0.9375
vt 0.125 0.9375
vt 0.125 1
vt 0 1
vt 0 0.9375
vt 0.125 0.9375
vt 0 0.9375
vt 0.125 0.9375
vt 0.125 1
vt 0 1
vt 0 0.9375
vt 0.125 0.9375
vt 0.125 1
vt 0 1
vt 0 0.9375
vt 0.125 0.9375
vt 0.125 1
vt 0 1
vt 0 0.875
vt 0.125 0.875
vt 0.125 0.9375
vt 0 0.9375
vt 0 0.875
vt 0.125 0.875
vt 0.125 0.9375
vt 0 0.9375
vt 0 0.875
vt 0.125 0.875
vt 0.125 0.9375
vt 0 0.9375
vt 0 0.875
vt 0.125 0.875
vt 0.125 0.9375
vt 0 0.9375
vt 0 0.875
vt 0.125 0.875
vt 0.125 0.9375
vt 0 0.9375
vn 1 0 0
vn -1 0 0
vn 0 1 0
vn 0 -1 0
vn 0 0 1
vn 0 0 -1
vn 0 0 1
vn 0 1 0
vn 0 0 -1
vn 0 -1 0
vn 0 1 0
vn 1 0 0
vn 0 -1 0
vn -1 0 0
vn 0 1 0
vn 0 -1 0
vn 0 0 -1
vn 0 1 0
vn 0 -1 0
vn 0 1 0
vn 0 0 1
vn 0 -1 0
vn -1 0 0
vn 0 -1 0
vn 0 1 0
vn 1 0 0
vn 0 1 0
vn 0 -1 0
vn 0 1 0
vn 0 -1 0
vn -1 0 0
vn 0 -1 0
vn 0 1 0
vn 1 0 0
vn 0 1 0
vn 0 -1 0
vn 0 1 0
vn 0 -1 0
vn -1 0 0
vn 0 -1 0
vn 0 1 0
vn 1 0 0
vn 0 1 0
vn 0 -1 0
vn 0 1 0
vn 0 -1 0
vn 0 0 1
vn 1 0 0
vn 0 0 -1
vn -1 0 0
vn 0 0 1
vn 1 0 0
vn 0 0 -1
vn -1 0 0
vn -1 0 0
vn 0 0 -1
vn 1 0 0
vn 0 0 1
vn 0 0 -1
vn 1 0 0
vn 0 0 1
vn -1 0 0
usemtl none
f 21/1/1 23/2/1 24/3/1 22/4/1
f 11/5/2 9/6/2 10/7/2 12/8/2
f 55/9/3 53/10/3 54/11/3 56/12/3
f 59/13/4 57/14/4 58/15/4 60/16/4
f 48/17/5 47/18/5 44/19/5 43/20/5
f 15/21/6 13/22/6 14/23/6 16/24/6
f 41/25/7 42/26/7 43/27/7 44/28/7
f 10/29/8 9/30/8 5/31/8 6/32/8
f 17/33/9 18/34/9 15/35/9 16/36/9
f 11/37/10 12/38/10 8/39/10 7/40/10
f 13/41/11 15/42/11 6/43/11 2/44/11
f 19/45/12 20/46/12 21/47/12 22/48/12
f 16/49/13 14/50/13 4/51/13 8/52/13
f 18/53/14 17/54/14 12/55/14 10/56/14
f 15/57/15 18/58/15 10/59/15 6/60/15
f 17/61/16 16/62/16 8/63/16 12/64/16
f 20/65/17 19/66/17 14/67/17 13/68/17
f 21/69/18 20/70/18 13/71/18 2/72/18
f 19/73/19 22/74/19 4/75/19 14/76/19
f 23/77/20 21/78/20 2/79/20 1/80/20
f 45/81/21 46/82/21 47/83/21 48/84/21
f 22/85/22 24/86/22 3/87/22 4/88/22
f 26/89/23 25/90/23 9/91/23 11/92/23
f 27/93/24 26/94/24 11/95/24 7/96/24
f 25/97/25 28/98/25 5/99/25 9/100/25
f 30/101/26 29/102/26 24/103/26 23/104/26
f 31/105/27 30/106/27 23/107/27 1/108/27
f 29/109/28 32/110/28 3/111/28 24/112/28
f 28/113/29 31/114/29 1/115/29 5/116/29
f 32/117/30 27/118/30 7/119/30 3/120/30
f 34/121/31 33/122/31 25/123/31 26/124/31
f 35/125/32 34/126/32 26/127/32 27/128/32
f 33/129/33 36/130/33 28/131/33 25/132/33
f 38/133/34 37/134/34 29/135/34 30/136/34
f 39/137/35 38/138/35 30/139/35 31/140/35
f 37/141/36 40/142/36 32/143/36 29/144/36
f 49/145/37 50/146/37 51/147/37 52/148/37
f 61/149/38 62/150/38 63/151/38 64/152/38
f 42/153/39 41/154/39 33/155/39 34/156/39
f 43/157/40 42/158/40 34/159/40 35/160/40
f 41/161/41 44/162/41 36/163/41 33/164/41
f 46/165/42 45/166/42 37/167/42 38/168/42
f 47/169/43 46/170/43 38/171/43 39/172/43
f 45/173/44 48/174/44 40/175/44 37/176/44
f 44/177/45 47/178/45 39/179/45 36/180/45
f 48/181/46 43/182/46 35/183/46 40/184/46
f 50/185/47 49/186/47 36/187/47 39/188/47
f 51/189/48 50/190/48 39/191/48 31/192/48
f 52/193/49 51/194/49 31/195/49 28/196/49
f 49/197/50 52/198/50 28/199/50 36/200/50
f 53/201/51 55/202/51 5/203/51 1/204/51
f 54/205/52 53/206/52 1/207/52 2/208/52
f 56/209/53 54/210/53 2/211/53 6/212/53
f 55/213/54 56/214/54 6/215/54 5/216/54
f 57/217/55 59/218/55 4/219/55 3/220/55
f 58/221/56 57/222/56 3/223/56 7/224/56
f 60/225/57 58/226/57 7/227/57 8/228/57
f 59/229/58 60/230/58 8/231/58 4/232/58
f 62/233/59 61/234/59 40/235/59 35/236/59
f 63/237/60 62/238/60 35/239/60 27/240/60
f 64/241/61 63/242/61 27/243/61 32/244/61
f 61/245/62 64/246/62 32/247/62 40/248/62