# Made in Blockbench 4.12.6
mtllib 2x2Top.mtl

o 2x2Top
v 0.0625 0.125 0.0625
v 0.0625 0.125 -0.0625
v 0.0625 0 0.0625
v 0.0625 0 -0.0625
v -0.0625 0.125 0.0625
v -0.0625 0.125 -0.0625
v -0.0625 0 0.0625
v -0.0625 0 -0.0625
v -0.1875 0.125 0.0625
v -0.1875 0.125 -0.0625
v -0.1875 0 0.0625
v -0.1875 0 -0.0625
v 0.0625 0.125 -0.125
v 0.0625 0 -0.125
v -0.0625 0.125 -0.125
v -0.0625 0 -0.125
v -0.1875 0 -0.125
v -0.1875 0.125 -0.125
v 0.0625 0.125 0.1875
v -0.0625 0.125 0.1875
v 0.0625 0 0.1875
v -0.0625 0 0.1875
v -0.1875 0.125 0.1875
v -0.1875 0 0.1875
v 0.125 0 -0.125
v 0.125 0.125 -0.125
v 0.125 0.125 -0.0625
v 0.125 0 -0.0625
v 0.125 0.125 0.0625
v 0.125 0 0.0625
v 0.125 0.125 0.1875
v 0.125 0 0.1875
v -0.1875 0.125 0.3125
v -0.1875 0 0.3125
v -0.0625 0 0.3125
v -0.0625 0.125 0.3125
v 0.0625 0.125 0.3125
v 0.0625 0 0.3125
v 0.125 0 0.3125
v 0.125 0.125 0.3125
v -0.1875 0.125 0.375
v -0.1875 0 0.375
v -0.0625 0 0.375
v -0.0625 0.125 0.375
v 0.0625 0.125 0.375
v 0.0625 0 0.375
v 0.125 0 0.375
v 0.125 0.125 0.375
v -0.3125 0.125 -0.125
v -0.3125 0 -0.125
v -0.3125 0 -0.0625
v -0.3125 0.125 -0.0625
v -0.3125 0.125 0.0625
v -0.3125 0 0.0625
v -0.3125 0 0.1875
v -0.3125 0.125 0.1875
v -0.3125 0 0.3125
v -0.3125 0.125 0.3125
v -0.3125 0 0.375
v -0.3125 0.125 0.375
v -0.375 0.125 -0.125
v -0.375 0 -0.125
v -0.375 0 -0.0625
v -0.375 0.125 -0.0625
v -0.375 0.125 0.0625
v -0.375 0 0.0625
v -0.375 0 0.1875
v -0.375 0.125 0.1875
v -0.375 0 0.3125
v -0.375 0.125 0.3125
v -0.375 0 0.375
v -0.375 0.125 0.375
v -0.3125 0.0625 0.3125
v -0.3125 0.0625 0.1875
v -0.1875 0.0625 0.1875
v -0.1875 0.0625 0.3125
v -0.3125 0.0625 0.0625
v -0.3125 0.0625 -0.0625
v -0.1875 0.0625 -0.0625
v -0.1875 0.0625 0.0625
v 0.0625 0.0625 0.0625
v -0.0625 0.0625 0.0625
v 0.0625 0.0625 -0.0625
v -0.0625 0.0625 -0.0625
v 0.0625 0.0625 0.3125
v -0.0625 0.0625 0.3125
v -0.0625 0.0625 0.1875
v 0.0625 0.0625 0.1875
vt 0.125 1
vt 0 1
vt 0 0.875
vt 0.125 0.875
vt 0.125 0.875
vt 0.125 1
vt 0 1
vt 0 0.875
vt 0 0.875
vt 0.125 0.875
vt 0.125 1
vt 0 1
vt 0.125 0.875
vt 0.125 1
vt 0 1
vt 0 0.875
vt 0.125 0.875
vt 0.125 1
vt 0 1
vt 0 0.875
vt 0.125 1
vt 0 1
vt 0 0.875
vt 0.125 0.875
vt 0.0625 1
vt 0.0625 0.875
vt 0.125 0.875
vt 0.125 1
vt 0 1
vt 0 0.875
vt 0.0625 0.875
vt 0.0625 1
vt 0.0625 0.875
vt 0.0625 1
vt 0 1
vt 0 0.875
vt 0 1
vt 0 0.875
vt 0.0625 0.875
vt 0.0625 1
vt 0.125 1
vt 0 1
vt 0 0.9375
vt 0.125 0.9375
vt 0.0625 0.875
vt 0.0625 1
vt 0 1
vt 0 0.875
vt 0 0.875
vt 0.125 0.875
vt 0.125 0.9375
vt 0 0.9375
vt 0 1
vt 0 0.875
vt 0.0625 0.875
vt 0.0625 1
vt 0.0625 1
vt 0 1
vt 0 0.9375
vt 0.0625 0.9375
vt 0 0.875
vt 0.0625 0.875
vt 0.0625 0.9375
vt 0 0.9375
vt 0.0625 1
vt 0.0625 0.875
vt 0.125 0.875
vt 0.125 1
vt 0 0.9375
vt 0.125 0.9375
vt 0.125 1
vt 0 1
vt 0.125 0.9375
vt 0 0.9375
vt 0 0.875
vt 0.125 0.875
vt 0.0625 0.875
vt 0.0625 1
vt 0 1
vt 0 0.875
vt 0.0625 0.9375
vt 0 0.9375
vt 0 0.875
vt 0.0625 0.875
vt 0 0.9375
vt 0.0625 0.9375
vt 0.0625 1
vt 0 1
vt 0 1
vt 0 0.875
vt 0.0625 0.875
vt 0.0625 1
vt 0.0625 0.9375
vt 0.0625 1
vt 0 1
vt 0 0.9375
vt 0.0625 0.875
vt 0.0625 0.9375
vt 0 0.9375
vt 0 0.875
vt 0.0625 0.875
vt 0.0625 1
vt 0 1
vt 0 0.875
vt 0.0625 0.875
vt 0.0625 1
vt 0 1
vt 0 0.875
vt 0.0625 0.875
vt 0.0625 1
vt 0 1
vt 0 0.875
vt 0.0625 0.875
vt 0.0625 0.9375
vt 0 0.9375
vt 0 0.875
vt 0.0625 0.9375
vt 0.0625 1
vt 0 1
vt 0 0.9375
vt 0.0625 0.875
vt 0.0625 1
vt 0 1
vt 0 0.875
vt 0.0625 0.9375
vt 0 0.9375
vt 0 0.875
vt 0.0625 0.875
vt 0 0.9375
vt 0.0625 0.9375
vt 0.0625 1
vt 0 1
vt 0 0.9375
vt 0.125 0.9375
vt 0.125 1
vt 0 1
vt 0.125 0.9375
vt 0 0.9375
vt 0 0.875
vt 0.125 0.875
vt 0 1
vt 0 0.875
vt 0.0625 0.875
vt 0.0625 1
vt 0 0.9375
vt 0.0625 0.9375
vt 0.0625 1
vt 0 1
vt 0.0625 0.9375
vt 0 0.9375
vt 0 0.875
vt 0.0625 0.875
vt 0.0625 0.875
vt 0.0625 1
vt 0 1
vt 0 0.875
vt 0.0625 0.9375
vt 0 0.9375
vt 0 0.875
vt 0.0625 0.875
vt 0 0.9375
vt 0.0625 0.9375
vt 0.0625 1
vt 0 1
vt 0 0.9375
vt 0.125 0.9375
vt 0.125 1
vt 0 1
vt 0.125 0.9375
vt 0 0.9375
vt 0 0.875
vt 0.125 0.875
vt 0 1
vt 0 0.875
vt 0.0625 0.875
vt 0.0625 1
vt 0 0.9375
vt 0.0625 0.9375
vt 0.0625 1
vt 0 1
vt 0.0625 0.9375
vt 0 0.9375
vt 0 0.875
vt 0.0625 0.875
vt 0.0625 0.875
vt 0.0625 1
vt 0 1
vt 0 0.875
vt 0 0.9375
vt 0 0.875
vt 0.0625 0.875
vt 0.0625 0.9375
vt 0 1
vt 0 0.9375
vt 0.0625 0.9375
vt 0.0625 1
vt 0 1
vt 0 0.875
vt 0.0625 0.875
vt 0.0625 1
vt 0 1
vt 0 0.875
vt 0.0625 0.875
vt 0.0625 1
vt 0 1
vt 0 0.875
vt 0.0625 0.875
vt 0.0625 1
vt 0 1
vt 0 0.875
vt 0.0625 0.875
vt 0.0625 1
vt 0 1
vt 0 0.875
vt 0.0625 0.875
vt 0.0625 1
vt 0 1
vt 0 0.875
vt 0.0625 0.875
vt 0.0625 1
vt 0 1
vt 0 0.875
vt 0.0625 0.875
vt 0.0625 1
vt 0 1
vt 0 0.9375
vt 0.0625 0.9375
vt 0.0625 1
vt 0 0.9375
vt 0 0.875
vt 0.0625 0.875
vt 0.0625 0.9375
vt 0.0625 0.875
vt 0.0625 1
vt 0 1
vt 0 0.875
vt 0 0.9375
vt 0 0.875
vt 0.0625 0.875
vt 0.0625 0.9375
vt 0 1
vt 0 0.9375
vt 0.0625 0.9375
vt 0.0625 1
vt 0 1
vt 0 0.875
vt 0.0625 0.875
vt 0.0625 1
vt 0 1
vt 0 0.875
vt 0.0625 0.875
vt 0.0625 1
vt 0 1
vt 0 0.875
vt 0.0625 0.875
vt 0.0625 1
vt 0 1
vt 0 0.875
vt 0.0625 0.875
vt 0.0625 1
vt 0 1
vt 0 0.875
vt 0.0625 0.875
vt 0.0625 1
vt 0 1
vt 0 0.875
vt 0.0625 0.875
vt 0.0625 1
vt 0 1
vt 0 0.875
vt 0.0625 0.875
vt 0.0625 1
vt 0 1
vt 0 0.9375
vt 0.0625 0.9375
vt 0.0625 1
vt 0 0.9375
vt 0 0.875
vt 0.0625 0.875
vt 0.0625 0.9375
vt 0 0.9375
vt 0.125 0.9375
vt 0.125 1
vt 0 1
vt 0 0.875
vt 0.125 0.875
vt 0.125 0.9375
vt 0 0.9375
vt 0 0.9375
vt 0.125 0.9375
vt 0.125 1
vt 0 1
vt 0 0.9375
vt 0.125 0.9375
vt 0.125 1
vt 0 1
vt 0 0.9375
vt 0.125 0.9375
vt 0.125 1
vt 0 1
vt 0 0.875
vt 0.125 0.875
vt 0.125 0.9375
vt 0 0.9375
vt 0 0.9375
vt 0.125 0.9375
vt 0.125 1
vt 0 1
vt 0 0.9375
vt 0.125 0.9375
vt 0.125 1
vt 0 1
vt 0 0.9375
vt 0.125 0.9375
vt 0.125 1
vt 0 1
vt 0 0.9375
vt 0.125 0.9375
vt 0.125 1
vt 0 1
vt 0 0.9375
vt 0.125 0.9375
vt 0.125 1
vt 0 1
vt 0 0.875
vt 0.125 0.875
vt 0.125 0.9375
vt 0 0.9375
vt 0 0.9375
vt 0.125 0.9375
vt 0.125 1
vt 0 1
vt 0 0.9375
vt 0.125 0.9375
vt 0.125 1
vt 0 1
vt 0 0.875
vt 0.125 0.875
vt 0.125 0.9375
vt 0 0.9375
vt 0 0.9375
vt 0.125 0.9375
vt 0.125 1
vt 0 1
vn 1 0 0
vn -1 0 0
vn 0 1 0
vn 0 -1 0
vn 0 0 1
vn 0 0 -1
vn 0 0 1
vn 0 1 0
vn 0 0 -1
vn 0 -1 0
vn 0 1 0
vn 1 0 0
vn 0 -1 0
vn -1 0 0
vn 0 1 0
vn 0 -1 0
vn 1 0 0
vn 0 1 0
vn 0 -1 0
vn -1 0 0
vn 0 -1 0
vn 0 1 0
vn 0 0 -1
vn 0 1 0
vn 0 -1 0
vn 0 1 0
vn 0 -1 0
vn 0 0 1
vn 0 -1 0
vn 0 1 0
vn -1 0 0
vn 0 -1 0
vn 0 1 0
vn 0 1 0
vn 0 -1 0
vn 1 0 0
vn 0 1 0
vn 0 -1 0
vn -1 0 0
vn 0 -1 0
vn 0 1 0
vn 0 1 0
vn 0 -1 0
vn 1 0 0
vn 0 1 0
vn 0 -1 0
vn 0 0 -1
vn 0 -1 0
vn 0 1 0
vn 0 1 0
vn 0 -1 0
vn 0 1 0
vn 0 -1 0
vn 0 1 0
vn 0 -1 0
vn 0 0 1
vn 0 1 0
vn 0 -1 0
vn 0 0 -1
vn 0 -1 0
vn 0 1 0
vn 0 1 0
vn 0 -1 0
vn 0 1 0
vn 0 -1 0
vn 0 1 0
vn 0 -1 0
vn 0 0 1
vn 0 1 0
vn 0 -1 0
vn 1 0 0
vn 0 0 1
vn -1 0 0
vn 0 0 -1
vn 1 0 0
vn 0 0 1
vn -1 0 0
vn 0 0 -1
vn -1 0 0
vn 0 0 -1
vn 1 0 0
vn 0 0 1
vn 0 0 -1
vn 1 0 0
vn 0 0 1
vn -1 0 0
usemtl none
f 27/1/1 29/2/1 30/3/1 28/4/1
f 66/5/2 65/6/2 64/7/2 63/8/2
f 5/9/3 1/10/3 2/11/3 6/12/3
f 83/13/4 81/14/4 82/15/4 84/16/4
f 46/17/5 45/18/5 44/19/5 43/20/5
f 15/21/6 13/22/6 14/23/6 16/24/6
f 41/25/7 42/26/7 43/27/7 44/28/7
f 10/29/8 9/30/8 5/31/8 6/32/8
f 17/33/9 18/34/9 15/35/9 16/36/9
f 11/37/10 12/38/10 8/39/10 7/40/10
f 13/41/11 15/42/11 6/43/11 2/44/11
f 25/45/12 26/46/12 27/47/12 28/48/12
f 16/49/13 14/50/13 4/51/13 8/52/13
f 61/53/14 62/54/14 63/55/14 64/56/14
f 15/57/15 18/58/15 10/59/15 6/60/15
f 17/61/16 16/62/16 8/63/16 12/64/16
f 31/65/17 32/66/17 30/67/17 29/68/17
f 20/69/18 19/70/18 1/71/18 5/72/18
f 21/73/19 22/74/19 7/75/19 3/76/19
f 67/77/20 68/78/20 65/79/20 66/80/20
f 22/81/21 24/82/21 11/83/21 7/84/21
f 23/85/22 20/86/22 5/87/22 9/88/22
f 26/89/23 25/90/23 14/91/23 13/92/23
f 27/93/24 26/94/24 13/95/24 2/96/24
f 25/97/25 28/98/25 4/99/25 14/100/25
f 29/101/26 27/102/26 2/103/26 1/104/26
f 28/105/27 30/106/27 3/107/27 4/108/27
f 47/109/28 48/110/28 45/111/28 46/112/28
f 30/113/29 32/114/29 21/115/29 3/116/29
f 31/117/30 29/118/30 1/119/30 19/120/30
f 69/121/31 70/122/31 68/123/31 67/124/31
f 35/125/32 34/126/32 24/127/32 22/128/32
f 33/129/33 36/130/33 20/131/33 23/132/33
f 36/133/34 37/134/34 19/135/34 20/136/34
f 85/137/35 86/138/35 87/139/35 88/140/35
f 40/141/36 39/142/36 32/143/36 31/144/36
f 37/145/37 40/146/37 31/147/37 19/148/37
f 39/149/38 38/150/38 21/151/38 32/152/38
f 71/153/39 72/154/39 70/155/39 69/156/39
f 43/157/40 42/158/40 34/159/40 35/160/40
f 41/161/41 44/162/41 36/163/41 33/164/41
f 44/165/42 45/166/42 37/167/42 36/168/42
f 46/169/43 43/170/43 35/171/43 38/172/43
f 48/173/44 47/174/44 39/175/44 40/176/44
f 45/177/45 48/178/45 40/179/45 37/180/45
f 47/181/46 46/182/46 38/183/46 39/184/46
f 50/185/47 49/186/47 18/187/47 17/188/47
f 51/189/48 50/190/48 17/191/48 12/192/48
f 49/193/49 52/194/49 10/195/49 18/196/49
f 52/197/50 53/198/50 9/199/50 10/200/50
f 77/201/51 78/202/51 79/203/51 80/204/51
f 53/205/52 56/206/52 23/207/52 9/208/52
f 55/209/53 54/210/53 11/211/53 24/212/53
f 56/213/54 58/214/54 33/215/54 23/216/54
f 73/217/55 74/218/55 75/219/55 76/220/55
f 60/221/56 59/222/56 42/223/56 41/224/56
f 58/225/57 60/226/57 41/227/57 33/228/57
f 59/229/58 57/230/58 34/231/58 42/232/58
f 62/233/59 61/234/59 49/235/59 50/236/59
f 63/237/60 62/238/60 50/239/60 51/240/60
f 61/241/61 64/242/61 52/243/61 49/244/61
f 64/245/62 65/246/62 53/247/62 52/248/62
f 66/249/63 63/250/63 51/251/63 54/252/63
f 65/253/64 68/254/64 56/255/64 53/256/64
f 67/257/65 66/258/65 54/259/65 55/260/65
f 68/261/66 70/262/66 58/263/66 56/264/66
f 69/265/67 67/266/67 55/267/67 57/268/67
f 72/269/68 71/270/68 59/271/68 60/272/68
f 70/273/69 72/274/69 60/275/69 58/276/69
f 71/277/70 69/278/70 57/279/70 59/280/70
f 74/281/71 73/282/71 57/283/71 55/284/71
f 75/285/72 74/286/72 55/287/72 24/288/72
f 76/289/73 75/290/73 24/291/73 34/292/73
f 73/293/74 76/294/74 34/295/74 57/296/74
f 78/297/75 77/298/75 54/299/75 51/300/75
f 79/301/76 78/302/76 51/303/76 12/304/76
f 80/305/77 79/306/77 12/307/77 11/308/77
f 77/309/78 80/310/78 11/311/78 54/312/78
f 81/313/79 83/314/79 4/315/79 3/316/79
f 82/317/80 81/318/80 3/319/80 7/320/80
f 84/321/81 82/322/81 7/323/81 8/324/81
f 83/325/82 84/326/82 8/327/82 4/328/82
f 86/329/83 85/330/83 38/331/83 35/332/83
f 87/333/84 86/334/84 35/335/84 22/336/84
f 88/337/85 87/338/85 22/339/85 21/340/85
f 85/341/86 88/342/86 21/343/86 38/344/86